<svg xmlns="http://www.w3.org/2000/svg" viewBox="0 0 100 100"><defs><radialGradient id="g" cx="0.4" cy="0.35" r="0.8"><stop offset="0" stop-color="#ffe0ee"/><stop offset="1" stop-color="#ff9cc4"/></radialGradient></defs><ellipse cx="50" cy="91" rx="32" ry="5" fill="#1d2150" opacity=".22"/><g transform="rotate(-14 38 30)"><ellipse cx="38" cy="26" rx="8" ry="20" fill="#ffb3d1" stroke="#1d2150" stroke-width="3" stroke-linejoin="round" stroke-linecap="round"/><ellipse cx="38" cy="28" rx="3.5" ry="13" fill="#ff7aa8"/></g><g transform="rotate(14 62 30)"><ellipse cx="62" cy="26" rx="8" ry="20" fill="#ffb3d1" stroke="#1d2150" stroke-width="3" stroke-linejoin="round" stroke-linecap="round"/><ellipse cx="62" cy="28" rx="3.5" ry="13" fill="#ff7aa8"/></g><g fill="#1d2150" stroke="#1d2150" stroke-width="6"><circle cx="74.0" cy="60.0" r="8"/><circle cx="71.6" cy="70.4" r="8"/><circle cx="65.0" cy="78.8" r="8"/><circle cx="55.3" cy="83.4" r="8"/><circle cx="44.7" cy="83.4" r="8"/><circle cx="35.0" cy="78.8" r="8"/><circle cx="28.4" cy="70.4" r="8"/><circle cx="26.0" cy="60.0" r="8"/><circle cx="28.4" cy="49.6" r="8"/><circle cx="35.0" cy="41.2" r="8"/><circle cx="44.7" cy="36.6" r="8"/><circle cx="55.3" cy="36.6" r="8"/><circle cx="65.0" cy="41.2" r="8"/><circle cx="71.6" cy="49.6" r="8"/><circle cx="50" cy="60" r="24"/></g><g fill="url(#g)"><circle cx="74.0" cy="60.0" r="8"/><circle cx="71.6" cy="70.4" r="8"/><circle cx="65.0" cy="78.8" r="8"/><circle cx="55.3" cy="83.4" r="8"/><circle cx="44.7" cy="83.4" r="8"/><circle cx="35.0" cy="78.8" r="8"/><circle cx="28.4" cy="70.4" r="8"/><circle cx="26.0" cy="60.0" r="8"/><circle cx="28.4" cy="49.6" r="8"/><circle cx="35.0" cy="41.2" r="8"/><circle cx="44.7" cy="36.6" r="8"/><circle cx="55.3" cy="36.6" r="8"/><circle cx="65.0" cy="41.2" r="8"/><circle cx="71.6" cy="49.6" r="8"/><circle cx="50" cy="60" r="24"/></g><circle cx="36" cy="49" r="3" fill="#fff" opacity=".8"/><ellipse cx="41" cy="58" rx="6" ry="6.7" fill="#fff" stroke="#1d2150" stroke-width="2.5"/><circle cx="42" cy="59.5" r="3.5" fill="#1d2150"/><circle cx="43.5" cy="58.0" r="1.3" fill="#fff"/><ellipse cx="59" cy="58" rx="6" ry="6.7" fill="#fff" stroke="#1d2150" stroke-width="2.5"/><circle cx="60" cy="59.5" r="3.5" fill="#1d2150"/><circle cx="61.5" cy="58.0" r="1.3" fill="#fff"/><ellipse cx="32" cy="68" rx="4.5" ry="2.6" fill="#ff7aa8" opacity=".55"/><ellipse cx="68" cy="68" rx="4.5" ry="2.6" fill="#ff7aa8" opacity=".55"/><path d="M47 66l3 3 3-3z" fill="#ff5c8a" stroke="#1d2150" stroke-linejoin="round" stroke-linecap="round" stroke-width="1.5"/><path d="M50 69v3m0 0q-3 3-6 1m6-1q3 3 6 1" fill="none" stroke="#1d2150" stroke-linejoin="round" stroke-linecap="round" stroke-width="2.2"/></svg>
