<svg xmlns="http://www.w3.org/2000/svg" viewBox="0 0 100 100"><defs><linearGradient id="g" x1="0" y1="0" x2="0" y2="1"><stop offset="0" stop-color="#d9c4ad"/><stop offset="1" stop-color="#a88f78"/></linearGradient></defs><ellipse cx="50" cy="91" rx="30" ry="5" fill="#1d2150" opacity=".22"/><rect x="33" y="76" width="10" height="13" rx="5" fill="#9b8571" stroke="#1d2150" stroke-width="3" stroke-linejoin="round" stroke-linecap="round"/><rect x="57" y="76" width="10" height="13" rx="5" fill="#9b8571" stroke="#1d2150" stroke-width="3" stroke-linejoin="round" stroke-linecap="round"/><path d="M26 40c2-14 14-22 26-22 14 0 24 8 26 20 3 14 1 30-6 38-8 8-34 8-42 0-6-8-6-22-4-36z" fill="url(#g)" stroke="#1d2150" stroke-width="3" stroke-linejoin="round" stroke-linecap="round"/><path d="M28 28c-10 2-14 14-10 26 3 6 10 4 11-2 1-8 2-16-1-24z" fill="#8a7461" stroke="#1d2150" stroke-width="3" stroke-linejoin="round" stroke-linecap="round"/><path d="M72 28c10 2 14 14 10 26-3 6-10 4-11-2-1-8-2-16 1-24z" fill="#8a7461" stroke="#1d2150" stroke-width="3" stroke-linejoin="round" stroke-linecap="round"/><path d="M62 26l4 6-3 5M36 74l4-4" fill="none" stroke="#1d2150" stroke-width="2" stroke-linecap="round" opacity=".35"/><path d="M38 26c4-3 9-4 13-4" fill="none" stroke="#fff" stroke-width="3.5" stroke-linecap="round" opacity="0.6"/><ellipse cx="40" cy="46" rx="6.5" ry="7.3" fill="#fff" stroke="#1d2150" stroke-width="2.5"/><circle cx="41" cy="47.5" r="3.8" fill="#1d2150"/><circle cx="42.6" cy="45.9" r="1.4" fill="#fff"/><ellipse cx="60" cy="46" rx="6.5" ry="7.3" fill="#fff" stroke="#1d2150" stroke-width="2.5"/><circle cx="61" cy="47.5" r="3.8" fill="#1d2150"/><circle cx="62.6" cy="45.9" r="1.4" fill="#fff"/><ellipse cx="50" cy="62" rx="13" ry="9" fill="#e9dccb" stroke="#1d2150" stroke-linejoin="round" stroke-linecap="round" stroke-width="2.5"/><ellipse cx="50" cy="58" rx="5" ry="3.5" fill="#1d2150"/><path d="M50 61v4m-5 1q5 4 10 0" fill="none" stroke="#1d2150" stroke-linejoin="round" stroke-linecap="round" stroke-width="2.4"/><ellipse cx="31" cy="57" rx="4.5" ry="2.6" fill="#ff7aa8" opacity=".55"/><ellipse cx="69" cy="57" rx="4.5" ry="2.6" fill="#ff7aa8" opacity=".55"/></svg>
