<svg xmlns="http://www.w3.org/2000/svg" viewBox="0 0 100 100"><defs><linearGradient id="g" x1="0" y1="0" x2="0" y2="1"><stop offset="0" stop-color="#ffb36b"/><stop offset="1" stop-color="#ff5c5c"/></linearGradient><linearGradient id="w" x1="0" y1="0" x2="1" y2="1"><stop offset="0" stop-color="#ffe066"/><stop offset="1" stop-color="#ff4f6d"/></linearGradient><linearGradient id="w2" x1="1" y1="0" x2="0" y2="1"><stop offset="0" stop-color="#ffe066"/><stop offset="1" stop-color="#ff4f6d"/></linearGradient></defs><path d="M44 76C40 84 34 88 30 96C38 94 44 90 46 84C46 90 46 94 50 99C54 94 54 90 54 84C56 90 62 94 70 96C66 88 60 84 56 76Z" fill="url(#w)" stroke="#1d2150" stroke-linejoin="round" stroke-linecap="round" stroke-width="2.6"/><path d="M44 50C32 34 18 24 2 24C8 30 10 36 8 40C14 40 18 42 16 48C22 48 26 50 24 56C30 56 34 58 32 64C38 64 42 64 46 62Z" fill="url(#w)" stroke="#1d2150" stroke-width="3" stroke-linejoin="round" stroke-linecap="round"/><path d="M56 50C68 34 82 24 98 24C92 30 90 36 92 40C86 40 82 42 84 48C78 48 74 50 76 56C70 56 66 58 68 64C62 64 58 64 54 62Z" fill="url(#w2)" stroke="#1d2150" stroke-width="3" stroke-linejoin="round" stroke-linecap="round"/><path d="M40 52C30 44 22 40 12 36M38 56C30 52 24 50 18 48M38 60C32 58 28 56 24 56" fill="none" stroke="#fff3b0" stroke-width="2.2" stroke-linecap="round" opacity=".8"/><path d="M60 52C70 44 78 40 88 36M62 56C70 52 76 50 82 48M62 60C68 58 72 56 76 56" fill="none" stroke="#fff3b0" stroke-width="2.2" stroke-linecap="round" opacity=".8"/><path d="M50 36C62 36 66 50 66 60C66 74 58 82 50 82C42 82 34 74 34 60C34 50 38 36 50 36Z" fill="url(#g)" stroke="#1d2150" stroke-width="3" stroke-linejoin="round" stroke-linecap="round"/><path d="M50 52C55 52 57 58 57 64C57 72 54 76 50 76C46 76 43 72 43 64C43 58 45 52 50 52Z" fill="#ffe9a0"/><path d="M42 22C40 14 42 8 46 4C46 10 48 12 50 12C50 6 54 2 58 0C58 6 60 12 58 20Z" fill="#ffc857" stroke="#1d2150" stroke-linejoin="round" stroke-linecap="round" stroke-width="2.4"/><circle cx="50" cy="30" r="14" fill="url(#g)" stroke="#1d2150" stroke-width="3" stroke-linejoin="round" stroke-linecap="round"/><ellipse cx="44" cy="29" rx="4.5" ry="5.0" fill="#fff" stroke="#1d2150" stroke-width="2.5"/><circle cx="45" cy="30.5" r="2.6" fill="#1d2150"/><circle cx="46.1" cy="29.4" r="1.0" fill="#fff"/><ellipse cx="56" cy="29" rx="4.5" ry="5.0" fill="#fff" stroke="#1d2150" stroke-width="2.5"/><circle cx="57" cy="30.5" r="2.6" fill="#1d2150"/><circle cx="58.1" cy="29.4" r="1.0" fill="#fff"/><ellipse cx="39" cy="36" rx="4.5" ry="2.6" fill="#ff7aa8" opacity=".55"/><ellipse cx="61" cy="36" rx="4.5" ry="2.6" fill="#ff7aa8" opacity=".55"/><path d="M47 35l3 6 3-6z" fill="#ffc857" stroke="#1d2150" stroke-linejoin="round" stroke-linecap="round" stroke-width="2"/><path d="M10 56.5Q10 60 13.5 60Q10 60 10 63.5Q10 60 6.5 60Q10 60 10 56.5z" fill="#ffe9a0" opacity="1"/><path d="M90 56.5Q90 60 93.5 60Q90 60 90 63.5Q90 60 86.5 60Q90 60 90 56.5z" fill="#ffe9a0" opacity="1"/><path d="M84 5.2Q84 8 86.8 8Q84 8 84 10.8Q84 8 81.2 8Q84 8 84 5.2z" fill="#fff" opacity="1"/><path d="M16 5.2Q16 8 18.8 8Q16 8 16 10.8Q16 8 13.2 8Q16 8 16 5.2z" fill="#fff" opacity="1"/></svg>
