<svg xmlns="http://www.w3.org/2000/svg" viewBox="0 0 100 100"><defs><linearGradient id="g" x1="0" y1="0" x2="0.4" y2="1"><stop offset="0" stop-color="#b49cff"/><stop offset="1" stop-color="#6a3fd8"/></linearGradient></defs><ellipse cx="50" cy="91" rx="30" ry="5" fill="#1d2150" opacity=".22"/><path d="M24 36l-14 -10" stroke="#1d2150" stroke-width="10" stroke-linecap="round"/><path d="M24 36l-14 -10" stroke="#ff8db6" stroke-width="7" stroke-linecap="round"/><path d="M24 44l-14 -1" stroke="#1d2150" stroke-width="10" stroke-linecap="round"/><path d="M24 44l-14 -1" stroke="#ff8db6" stroke-width="7" stroke-linecap="round"/><path d="M24 52l-14 8" stroke="#1d2150" stroke-width="10" stroke-linecap="round"/><path d="M24 52l-14 8" stroke="#ff8db6" stroke-width="7" stroke-linecap="round"/><path d="M76 36l14 -10" stroke="#1d2150" stroke-width="10" stroke-linecap="round"/><path d="M76 36l14 -10" stroke="#ff8db6" stroke-width="7" stroke-linecap="round"/><path d="M76 44l14 -1" stroke="#1d2150" stroke-width="10" stroke-linecap="round"/><path d="M76 44l14 -1" stroke="#ff8db6" stroke-width="7" stroke-linecap="round"/><path d="M76 52l14 8" stroke="#1d2150" stroke-width="10" stroke-linecap="round"/><path d="M76 52l14 8" stroke="#ff8db6" stroke-width="7" stroke-linecap="round"/><path d="M34 70c-2 10 4 18 16 18s18-8 16-18z" fill="url(#g)" stroke="#1d2150" stroke-width="3" stroke-linejoin="round" stroke-linecap="round"/><ellipse cx="50" cy="50" rx="28" ry="22" fill="url(#g)" stroke="#1d2150" stroke-width="3" stroke-linejoin="round" stroke-linecap="round"/><path d="M34 32.5Q34 36 37.5 36Q34 36 34 39.5Q34 36 30.5 36Q34 36 34 32.5z" fill="#fff" opacity="1"/><path d="M64 31.5Q64 34 66.5 34Q64 34 64 36.5Q64 34 61.5 34Q64 34 64 31.5z" fill="#fff" opacity="1"/><path d="M58 62Q58 64 60 64Q58 64 58 66Q58 64 56 64Q58 64 58 62z" fill="#fff" opacity="1"/><circle cx="42" cy="34" r="1.3" fill="#fff"/><circle cx="70" cy="46" r="1.3" fill="#fff"/><circle cx="30" cy="56" r="1.3" fill="#fff"/><ellipse cx="38" cy="49" rx="5.5" ry="6.2" fill="#fff" stroke="#1d2150" stroke-width="2.5"/><circle cx="39" cy="50.5" r="3.2" fill="#1d2150"/><circle cx="40.4" cy="49.1" r="1.2" fill="#fff"/><ellipse cx="62" cy="49" rx="5.5" ry="6.2" fill="#fff" stroke="#1d2150" stroke-width="2.5"/><circle cx="63" cy="50.5" r="3.2" fill="#1d2150"/><circle cx="64.4" cy="49.1" r="1.2" fill="#fff"/><ellipse cx="30" cy="58" rx="4.5" ry="2.6" fill="#ff7aa8" opacity=".55"/><ellipse cx="70" cy="58" rx="4.5" ry="2.6" fill="#ff7aa8" opacity=".55"/><path d="M38 59q12 9 24 0" fill="none" stroke="#1d2150" stroke-linejoin="round" stroke-linecap="round" stroke-width="3"/></svg>
