<svg xmlns="http://www.w3.org/2000/svg" viewBox="0 0 100 100"><defs><linearGradient id="g" x1="0" y1="0" x2="0" y2="1"><stop offset="0" stop-color="#ffc2d8"/><stop offset="1" stop-color="#ff5c93"/></linearGradient></defs><ellipse cx="50" cy="91" rx="32" ry="5" fill="#1d2150" opacity=".22"/><path d="M30 60c-6 8 6 16 -8.4 26" fill="none" stroke="#1d2150" stroke-width="14" stroke-linecap="round"/><path d="M40 60c4 8 -4 16 5.6 26" fill="none" stroke="#1d2150" stroke-width="14" stroke-linecap="round"/><path d="M50 60c-4 8 4 16 -5.6 26" fill="none" stroke="#1d2150" stroke-width="14" stroke-linecap="round"/><path d="M60 60c5 8 -5 16 7.0 26" fill="none" stroke="#1d2150" stroke-width="14" stroke-linecap="round"/><path d="M70 60c7 8 -7 16 9.8 26" fill="none" stroke="#1d2150" stroke-width="14" stroke-linecap="round"/><path d="M30 60c-6 8 6 16 -8.4 26" fill="none" stroke="#ff8db6" stroke-width="11" stroke-linecap="round"/><path d="M40 60c4 8 -4 16 5.6 26" fill="none" stroke="#ff8db6" stroke-width="11" stroke-linecap="round"/><path d="M50 60c-4 8 4 16 -5.6 26" fill="none" stroke="#ff8db6" stroke-width="11" stroke-linecap="round"/><path d="M60 60c5 8 -5 16 7.0 26" fill="none" stroke="#ff8db6" stroke-width="11" stroke-linecap="round"/><path d="M70 60c7 8 -7 16 9.8 26" fill="none" stroke="#ff8db6" stroke-width="11" stroke-linecap="round"/><circle cx="28" cy="80" r="1.8" fill="#ffd1e2"/><circle cx="44" cy="82" r="1.8" fill="#ffd1e2"/><circle cx="56" cy="80" r="1.8" fill="#ffd1e2"/><circle cx="72" cy="84" r="1.8" fill="#ffd1e2"/><path d="M50 8C66 18 78 36 78 54c0 10-12 12-28 12S22 64 22 54c0-18 12-36 28-46z" fill="url(#g)" stroke="#1d2150" stroke-width="3" stroke-linejoin="round" stroke-linecap="round"/><path d="M24 42 12 34l4 14zM76 42l12-8-4 14z" fill="#ff8db6" stroke="#1d2150" stroke-width="3" stroke-linejoin="round" stroke-linecap="round"/><polygon points="50.0,21.0 52.4,26.8 58.6,27.2 53.8,31.2 55.3,37.3 50.0,34.0 44.7,37.3 46.2,31.2 41.4,27.2 47.6,26.8" fill="#ffc857" stroke="#1d2150" stroke-linejoin="round" stroke-linecap="round" stroke-width="2.2"/><path d="M33 34c2-6 6-11 10-14" fill="none" stroke="#fff" stroke-width="3.5" stroke-linecap="round" opacity="0.7"/><ellipse cx="41" cy="50" rx="6.5" ry="7.3" fill="#fff" stroke="#1d2150" stroke-width="2.5"/><circle cx="42" cy="51.5" r="3.8" fill="#1d2150"/><circle cx="43.6" cy="49.9" r="1.4" fill="#fff"/><ellipse cx="59" cy="50" rx="6.5" ry="7.3" fill="#fff" stroke="#1d2150" stroke-width="2.5"/><circle cx="60" cy="51.5" r="3.8" fill="#1d2150"/><circle cx="61.6" cy="49.9" r="1.4" fill="#fff"/><ellipse cx="31" cy="59" rx="4.5" ry="2.6" fill="#ff7aa8" opacity=".55"/><ellipse cx="69" cy="59" rx="4.5" ry="2.6" fill="#ff7aa8" opacity=".55"/><path d="M45.5 58q4.5 4.0 9.0 0" fill="none" stroke="#1d2150" stroke-linejoin="round" stroke-linecap="round" stroke-width="3"/></svg>
